<svg viewBox="0 0 25 28" width="16" height="18"
     xmlns="http://www.w3.org/2000/svg">
<symbol id="star" viewBox="0 0 100 96">
  <path d="M100,45.692L71.084,55.157L88.903,79.765L67.885,95.039L50,70.431L32.115,95.039L11.097,79.765L28.916,55.157L0,45.692L8.159,21.018L37.01,30.352L37.01,0L62.99,0L62.99,30.352L91.841,21.018L100,45.692Z"/>
</symbol>

<style>
/*
 * If we are riding a wave of A * sin(B * x), then:
 *   A = amplitude
 *   B = 2pi / period
 *
 * The slope of the wave is:
 *   d/dx (A * sin(B * x)) = A * d/dx sin(B * x) = AB cos(B * x)
 *
 * At x=0, the maximum positive slope is AB and tilt is atan AB.
 *
 * Unfortunately, we only have t (the time of a full period) and
 * not x (the distance of a full period). Hence --max-tilt below
 * is a visual guess.
 *
 * --phase is 3/4 period to synchronize the two animations.
 */

svg {
  --sine: cubic-bezier(0.445, 0.05, 0.55, 0.95);
  --period: 10s;
  --phase: calc(-3 * var(--period) / 4);
  --amplitude: 3px;
  --max-tilt: 5deg;
}

#amplitude {
  -webkit-transform: translateY(var(--amplitude));
  transform: translateY(var(--amplitude));
  -webkit-animation: var(--period) var(--sine) infinite amplitude;
  animation: var(--period) var(--sine) infinite amplitude;
}

@keyframes amplitude { 50% {
  -webkit-transform: translateY(calc(-1 * var(--amplitude)));
  transform: translateY(calc(-1 * var(--amplitude)));
} }

#tilt {
  transform-origin: center;
  -webkit-transform: rotate(calc(-1 * var(--max-tilt)));
  transform: rotate(calc(-1 * var(--max-tilt)));
  -webkit-animation: var(--period) var(--sine) var(--phase) infinite tilt;
  animation: var(--period) var(--sine) var(--phase) infinite tilt;
}

@keyframes tilt { 50% {
  -webkit-transform: rotate(var(--max-tilt));
  transform:rotate(var(--max-tilt))
} }

@media (prefers-reduced-motion: reduce) {
  #amplitude, #tilt {
    -webkit-transform: none;
    transform: none;
    -webkit-animation: none;
    animation: none;
  }
}
</style>

<!-- <rect fill="none" stroke="#ff0000" width="25" height="28"/> -->

<g id="amplitude">
<g id="tilt">
<use href="#star" x="7.5" y="10.7" width="10" height="9.6"
       transform="rotate(0,12.5,15.5) translate(0, -7)" fill="#000" />
<use href="#star" x="7.5" y="10.7" width="10" height="9.6"
       transform="rotate(120,12.5,15.5) translate(0, -7)" fill="#000" />
<use href="#star" x="7.5" y="10.7" width="10" height="9.6"
       transform="rotate(240,12.5,15.5) translate(0, -7)" fill="#000" />
</g>
</g>
</svg>
